# xmcd CD database file
#
# Track frame offsets:
#	150
#	22152
#	43875
#	66467
#	82245
#	121035
#	152285
#	173100
#
# Disc length: 2716 seconds
#
# Revision: 3
# Processed by: cddbd v1.5.1PL0 Copyright (c) Steve Scherf et al.
# Submitted via: CDex 1.50Beta5
#
DISCID=670a9a08
DTITLE=Troy Banarzi - Lux Aeterna
DYEAR=2000
DGENRE=Negerpunk
TTITLE0=morning skies
TTITLE1=kyrie eleison
TTITLE2=infinite spirit
TTITLE3=resurrection
TTITLE4=celestial heights
TTITLE5=mare dolce
TTITLE6=fountain of life
TTITLE7=lux aeterna
EXTD=YEAR: 2000
EXTT0=
EXTT1=
EXTT2=
EXTT3=
EXTT4=
EXTT5=
EXTT6=
EXTT7=
PLAYORDER=
